<?xml version="1.0" encoding="UTF-8" standalone="no"?>
<svg
   xmlns:dc="http://purl.org/dc/elements/1.1/"
   xmlns:cc="http://creativecommons.org/ns#"
   xmlns:rdf="http://www.w3.org/1999/02/22-rdf-syntax-ns#"
   xmlns:svg="http://www.w3.org/2000/svg"
   xmlns="http://www.w3.org/2000/svg"
   id="svg897"
   version="1.1"
   viewBox="0 0 1080 305"
   height="305"
   width="1080">
  <metadata
     id="metadata903">
    <rdf:RDF>
      <cc:Work
         rdf:about="">
        <dc:format>image/svg+xml</dc:format>
        <dc:type
           rdf:resource="http://purl.org/dc/dcmitype/StillImage" />
        <dc:title></dc:title>
      </cc:Work>
    </rdf:RDF>
  </metadata>
  <defs
     id="defs901" />
  <path
     id="rect1553"
     d="M 185.37695 -0.087890625 C 178.39554 -0.087890625 171.41397 2.5879795 166.06445 7.9375 L 73.691406 100.31055 C 62.992365 111.00959 62.992365 128.23651 73.691406 138.93555 L 166.06445 231.30859 C 176.76349 242.00763 193.99041 242.00763 204.68945 231.30859 L 297.0625 138.93555 C 307.76154 128.23651 307.76154 111.00959 297.0625 100.31055 L 204.68945 7.9375 C 199.33993 2.5879795 192.35837 -0.087890625 185.37695 -0.087890625 z M 185.37695 33.748047 A 17.5 17.5 0 0 1 202.87695 51.248047 A 17.5 17.5 0 0 1 185.37695 68.748047 A 17.5 17.5 0 0 1 167.87695 51.248047 A 17.5 17.5 0 0 1 185.37695 33.748047 z M 117.00195 102.12305 A 17.5 17.5 0 0 1 134.50195 119.62305 A 17.5 17.5 0 0 1 117.00195 137.12305 A 17.5 17.5 0 0 1 99.501953 119.62305 A 17.5 17.5 0 0 1 117.00195 102.12305 z M 185.37695 102.12305 A 17.5 17.5 0 0 1 202.87695 119.62305 A 17.5 17.5 0 0 1 185.37695 137.12305 A 17.5 17.5 0 0 1 167.87695 119.62305 A 17.5 17.5 0 0 1 185.37695 102.12305 z M 253.75195 102.12305 A 17.5 17.5 0 0 1 271.25195 119.62305 A 17.5 17.5 0 0 1 253.75195 137.12305 A 17.5 17.5 0 0 1 236.25195 119.62305 A 17.5 17.5 0 0 1 253.75195 102.12305 z M 185.37695 170.49805 A 17.5 17.5 0 0 1 202.87695 187.99805 A 17.5 17.5 0 0 1 185.37695 205.49805 A 17.5 17.5 0 0 1 167.87695 187.99805 A 17.5 17.5 0 0 1 185.37695 170.49805 z "
     style="opacity:1;fill:#f9f871;fill-opacity:1;stroke:none;stroke-width:1.20931709;stroke-miterlimit:4;stroke-dasharray:none;stroke-opacity:1" />
  <g
     id="g1819"
     transform="matrix(0.54513636,0,0,0.54513636,0.23116713,98.894502)"
     style="fill:#f9f871;fill-opacity:1">
    <g
       transform="matrix(0.85587108,0,0,0.85587108,-0.42405378,54.59388)"
       id="g1817"
       style="fill:#f9f871;fill-opacity:1">
      <path
         id="path1811"
         d="m 56.965,135.967 c 17.806,0 33.698,-8.174 44.145,-20.97 h 40.58252 L 179.26187,80.723444 141.69152,43.008 H 101.11 C 90.663,30.213 74.77,22.038 56.964,22.038 25.504,22.038 0,47.541 0,79.003 c 0,31.46 25.504,56.964 56.965,56.964 z m -0.47,-87.092 h 8.919 V 109.13 H 54.183 V 61.057 l -9.311,5.026 -2.454,-9.673 z"
         style="fill:#f9f871;fill-opacity:1" />
      <path
         id="path1813"
         d="m 56.965,257.127 c 17.879,0 33.828,-8.244 44.271,-21.132 H 262.32301 L 301.80469,203.53683 262.32301,164.005 H 100.982 C 90.535,151.301 74.697,143.197 56.964,143.197 25.504,143.197 0,168.699 0,200.162 c 0,31.46 25.504,56.965 56.965,56.965 z m -19.45,-33.585 6.425,-6.24 c 14.438,-13.74 20.479,-20.729 20.559,-28.478 0,-4.354 -1.69,-9.559 -9.747,-9.559 -4.978,0 -9.059,2.78 -11.048,4.437 l -1.46,1.219 -3.661,-8.108 0.834,-0.706 c 4.632,-3.911 10.634,-6.067 16.896,-6.067 12.927,0 18.714,8.964 18.714,17.846 0,11.297 -8.24,20.108 -19.88,31.322 l -2.005,1.852 h 23.272 v 9.228 H 37.515 Z"
         style="fill:#f9f871;fill-opacity:1" />
      <path
         id="path1815"
         d="M 422.88183,322.20792 386.58527,285.003 H 101.11 C 90.663,272.207 74.77,264.033 56.964,264.033 25.504,264.033 0,289.535 0,320.997 c 0,31.461 25.504,56.965 56.965,56.965 17.806,0 33.698,-8.175 44.145,-20.97 H 386.58627 Z M 54.161,351.597 c -6.848,0 -12.606,-2.184 -15.457,-4.054 l -0.947,-0.621 3.066,-8.69 1.536,0.982 c 1.8,1.153 6.563,3.331 11.716,3.331 3.878,0 6.85,-1.023 8.833,-3.044 1.618,-1.648 2.521,-3.986 2.475,-6.416 -0.08,-7.271 -6.835,-9.859 -13.13,-9.859 h -5.698 v -8.621 h 5.698 c 4.477,0 11.134,-2.155 11.134,-8.098 0,-4.484 -3.077,-7.058 -8.445,-7.058 -4.129,0 -8.203,1.866 -10.438,3.463 l -1.555,1.11 -3.007,-8.367 0.868,-0.639 c 3.128,-2.3 9.167,-4.619 15.608,-4.619 12.147,0 17.585,7.48 17.585,14.896 0,5.562 -2.87,10.188 -7.995,13.093 6.278,2.538 10.163,8.062 10.163,14.846 0,9.142 -6.805,18.365 -22.01,18.365 z"
         style="fill:#f9f871;fill-opacity:1" />
    </g>
  </g>
  <text
     id="text2500"
     y="202.22166"
     x="384.39941"
     style="font-style:normal;font-weight:normal;font-size:189.22195435px;line-height:1.25;font-family:sans-serif;letter-spacing:0px;word-spacing:0px;fill:#ffffff;fill-opacity:1;stroke:none;stroke-width:4.73054886;"
     xml:space="preserve"><tspan
       style="font-style:normal;font-variant:normal;font-weight:normal;font-stretch:normal;font-family:nunito;-inkscape-font-specification:nunito;fill:#ffffff;stroke-width:4.73054886;"
       y="202.22166"
       x="384.39941"
       id="tspan2498"><tspan
         id="tspan2504"
         style="font-style:normal;font-variant:normal;font-weight:600;font-stretch:normal;font-family:nunito;-inkscape-font-specification:'nunito Semi-Bold';fill:#ffffff;stroke-width:4.73054886;">prio</tspan><tspan
         id="tspan2502"
         style="font-style:normal;font-variant:normal;font-weight:800;font-stretch:normal;font-family:nunito;-inkscape-font-specification:'nunito Ultra-Bold';fill:#ffffff;stroke-width:4.73054886;">sort</tspan></tspan></text>
</svg>
